<?xml version="1.0" encoding="UTF-8" standalone="no"?>
<!-- Created with Inkscape (http://www.inkscape.org/) -->

<svg
   width="62.211903mm"
   height="83.834351mm"
   viewBox="0 0 62.211901 83.834351"
   version="1.1"
   id="svg1"
   xml:space="preserve"
   inkscape:export-filename="logo.svg"
   inkscape:export-xdpi="96"
   inkscape:export-ydpi="96"
   sodipodi:docname="logo.svg"
   xmlns:inkscape="http://www.inkscape.org/namespaces/inkscape"
   xmlns:sodipodi="http://sodipodi.sourceforge.net/DTD/sodipodi-0.dtd"
   xmlns="http://www.w3.org/2000/svg"
   xmlns:svg="http://www.w3.org/2000/svg"><sodipodi:namedview
     id="namedview1"
     pagecolor="#ffffff"
     bordercolor="#000000"
     borderopacity="0.25"
     inkscape:showpageshadow="2"
     inkscape:pageopacity="0.0"
     inkscape:pagecheckerboard="0"
     inkscape:deskcolor="#d1d1d1"
     inkscape:document-units="mm" /><defs
     id="defs1" /><g
     inkscape:label="Layer 1"
     inkscape:groupmode="layer"
     id="layer1"
     transform="translate(-11.869411,-1.8688992)"><path
       id="rect1"
       style="fill:#267a4d;fill-opacity:1;stroke:#267a4d;stroke-width:11.939;stroke-linejoin:bevel;stroke-opacity:0;paint-order:markers stroke fill"
       d="M 17.838911,7.8383993 V 79.733752 H 68.111812 V 7.8383993 Z M 44.073486,21.355404 c 3.492056,0 6.969806,0.954358 10.433472,2.862874 1.107237,-0.510417 2.299461,-1.187586 3.577042,-2.030884 h 2.725415 l 0.681612,11.983765 H 58.084 c -1.788614,-3.950185 -3.832795,-6.701867 -6.132442,-8.25531 -2.271256,-1.575636 -5.024971,-2.36368 -8.261511,-2.36368 -2.753899,0 -5.02544,0.677169 -6.814055,2.030884 -1.788614,1.353715 -2.682523,2.917889 -2.682523,4.693253 0,2.197013 0.936894,3.706267 2.810681,4.527372 1.873786,0.821106 5.096207,1.609151 9.66711,2.36368 7.012504,1.176179 11.710961,2.951224 14.095781,5.325774 2.413209,2.352357 3.619934,5.348585 3.619934,8.988081 0,4.283066 -1.589976,7.977708 -4.769735,11.084595 -3.151368,3.106887 -7.580513,4.660698 -13.287044,4.660698 -4.059871,0 -7.721996,-0.998916 -10.986927,-2.9962 -1.589879,0.97645 -3.023964,1.930808 -4.301546,2.862874 H 28.188667 V 54.077437 h 3.321761 c 2.498382,7.323377 7.353247,10.98486 14.564486,10.98486 3.804354,0 6.728461,-0.876125 8.772591,-2.629297 2.044131,-1.753172 3.06648,-3.717326 3.06648,-5.892147 0,-1.220563 -0.454722,-2.318956 -1.363225,-3.295406 -0.880111,-0.97645 -1.915927,-1.753097 -3.108337,-2.330091 -1.19241,-0.576993 -4.485783,-1.298719 -9.880017,-2.164209 -5.394234,-0.865489 -9.35519,-2.485102 -11.881962,-4.859651 -2.498382,-2.374549 -3.747575,-5.337619 -3.747575,-8.888347 0,-3.817032 1.533523,-7.045893 4.599719,-9.686747 3.094587,-2.640854 6.941604,-3.960998 11.540898,-3.960998 z" /></g></svg>
