<?xml version="1.0" encoding="UTF-8" standalone="no"?>
<!-- Created with Inkscape (http://www.inkscape.org/) -->

<svg
   width="166.25993mm"
   height="84.369423mm"
   viewBox="0 0 166.25993 84.369423"
   version="1.1"
   id="svg1"
   xml:space="preserve"
   xmlns="http://www.w3.org/2000/svg"
   xmlns:svg="http://www.w3.org/2000/svg"><defs
     id="defs1" /><g
     id="layer1"
     transform="translate(-11.86925,-1.8687378)"><path
       id="rect1"
       style="fill:#000000;stroke:#296635;stroke-width:11.939;stroke-linejoin:bevel;stroke-opacity:0;paint-order:markers stroke fill"
       d="M 17.838911,7.8383993 V 79.733752 H 68.111812 V 7.8383993 Z M 44.073486,21.355404 c 3.492056,0 6.969806,0.954358 10.433472,2.862874 1.107237,-0.510417 2.299461,-1.187586 3.577042,-2.030884 h 2.725415 l 0.681612,11.983765 H 58.084 c -1.788614,-3.950185 -3.832795,-6.701867 -6.132442,-8.25531 -2.271256,-1.575636 -5.024971,-2.36368 -8.261511,-2.36368 -2.753899,0 -5.02544,0.677169 -6.814055,2.030884 -1.788614,1.353715 -2.682523,2.917889 -2.682523,4.693253 0,2.197013 0.936894,3.706267 2.810681,4.527372 1.873786,0.821106 5.096207,1.609151 9.66711,2.36368 7.012504,1.176179 11.710961,2.951224 14.095781,5.325774 2.413209,2.352357 3.619934,5.348585 3.619934,8.988081 0,4.283066 -1.589976,7.977708 -4.769735,11.084595 -3.151368,3.106887 -7.580513,4.660698 -13.287044,4.660698 -4.059871,0 -7.721996,-0.998916 -10.986927,-2.9962 -1.589879,0.97645 -3.023964,1.930808 -4.301546,2.862874 H 28.188667 V 54.077437 h 3.321761 c 2.498382,7.323377 7.353247,10.98486 14.564486,10.98486 3.804354,0 6.728461,-0.876125 8.772591,-2.629297 2.044131,-1.753172 3.06648,-3.717326 3.06648,-5.892147 0,-1.220563 -0.454722,-2.318956 -1.363225,-3.295406 -0.880111,-0.97645 -1.915927,-1.753097 -3.108337,-2.330091 -1.19241,-0.576993 -4.485783,-1.298719 -9.880017,-2.164209 -5.394234,-0.865489 -9.35519,-2.485102 -11.881962,-4.859651 -2.498382,-2.374549 -3.747575,-5.337619 -3.747575,-8.888347 0,-3.817032 1.533523,-7.045893 4.599719,-9.686747 3.094587,-2.640854 6.941604,-3.960998 11.540898,-3.960998 z" /><rect
       style="fill:#000000;stroke:#296635;stroke-width:11.939;stroke-linejoin:bevel;stroke-opacity:0;paint-order:markers stroke fill"
       id="rect2"
       width="107.30276"
       height="0.81085217"
       x="64.597893"
       y="60.003059" /><g
       id="text2"><path
         style="color:#000000;-inkscape-font-specification:Arial;fill:#296635;fill-opacity:0;stroke-linejoin:bevel;-inkscape-stroke:none;paint-order:markers stroke fill"
         d="m 130.54297,57.597656 c -1.60757,0 -3.48455,0.255401 -5.33399,1.486328 -1.25403,0.833486 -2.32403,2.17123 -2.99414,3.617188 -1.06388,-0.306482 -2.13886,-0.638672 -3.1914,-0.638672 -1.00606,0 -2.03436,0.264025 -3.04883,0.535156 L 111.25,57.873047 h -1.98437 l -1.96485,1.964844 c -0.50106,-0.341696 -0.98252,-0.728923 -1.51953,-0.962891 -1.85139,-0.816337 -3.60234,-1.001953 -5.35742,-1.001953 h -6.062502 l -5.970703,5.96875 v 16.162109 l 5.970703,5.96875 h 6.162112 c 1.37005,0 2.68087,-0.09942 4.04883,-0.441406 l 0.043,-0.01172 c 0.96112,-0.247709 1.9158,-0.790677 2.85938,-1.33789 l 1.79102,1.791015 H 111.25 l 1.53906,-1.537109 c 1.89483,1.165419 4.14013,1.802734 6.23438,1.802734 1.94924,0 3.97738,-0.502494 5.71289,-1.464844 0.27934,-0.154378 0.50555,-0.409305 0.77344,-0.591796 l 1.79101,1.791015 h 1.97461 l 1.66406,-1.664062 c 0.57997,0.411694 1.17543,0.760474 1.75391,1.017578 l 0.0254,0.01172 c 1.37143,0.602087 2.88692,0.90039 4.33984,0.90039 1.09711,0 2.21243,-0.284287 3.30274,-0.677734 l 0.41211,0.412109 h 1.77539 l 1.58984,-1.589844 c 1.95255,1.225546 4.28299,1.855469 6.43555,1.855469 2.03073,0 4.1901,-0.611592 6.08984,-1.771484 l 1.50586,1.505859 h 1.98438 l 1.34375,-1.34375 c 1.93738,1.106014 4.00463,1.609375 5.94336,1.609375 1.60319,0 3.27799,-0.28698 4.84765,-0.96875 l 0.0469,-0.01953 c 1.58248,-0.703329 3.16183,-1.918233 4.2207,-3.523438 0.95558,-1.44609 1.57227,-3.332427 1.57227,-5.162109 0,-1.55618 -0.43342,-3.380984 -1.46289,-4.941406 l 0.94335,-1.277344 c -0.23078,-1.398332 -0.69846,-2.914749 -1.75781,-4.359375 -1.17675,-1.611634 -2.77321,-2.579933 -4.23242,-3.134766 -1.51361,-0.578367 -3.05185,-0.789062 -4.54102,-0.789062 -0.78965,0 -1.59222,0.183792 -2.39062,0.34375 l -4.5332,-4.533203 h -1.98438 l -4.79492,4.794922 c -0.97452,-0.265944 -1.95143,-0.605469 -2.91211,-0.605469 -2.12383,0 -4.39165,0.686043 -6.28516,1.892578 l -1.6289,-1.628906 h -1.98438 l -2.35351,2.353515 -4.66992,-6.773437 c -0.98015,-0.191766 -1.96821,-0.308594 -2.99805,-0.308594 z m -26.59961,2.677735 0.0801,0.02539 c -0.021,-0.0068 -0.0319,-0.0051 -0.0527,-0.01172 -0.009,-0.0029 -0.0181,-0.01084 -0.0273,-0.01367 z m 6.31445,0.871093 2.76172,2.761719 c -0.0396,0.02363 -0.0799,0.04426 -0.11914,0.06836 L 111.25,62.326172 h -1.36328 c -0.10839,-0.155373 -0.25437,-0.283824 -0.37305,-0.433594 z m 53.42774,1.396485 c -0.008,0.0023 -0.0174,0.0094 -0.0254,0.01172 -0.008,0.0025 -0.017,0.0014 -0.0254,0.0039 z m -53.49219,0.123047 0.0391,0.0625 c -0.006,-0.01007 -0.0172,-0.01729 -0.0234,-0.02734 -0.007,-0.01057 -0.009,-0.02463 -0.0156,-0.03516 z m 50.4375,1.324218 c -0.012,0.0085 -0.0174,0.02459 -0.0293,0.0332 -0.0158,0.0115 -0.0291,0.0098 -0.0449,0.02148 z m 12.08594,1.503907 0.0391,0.03125 c -0.007,-0.006 -0.016,-0.0057 -0.0234,-0.01172 -0.006,-0.0052 -0.009,-0.01439 -0.0156,-0.01953 z m -5.28711,7.173828 c 0.008,0 0.49691,0.258931 0.76367,0.333984 -0.12282,0.175791 -0.26537,0.332801 -0.42774,0.482422 l -0.9082,-0.671875 c 0.38756,-0.128241 0.63219,-0.144531 0.57227,-0.144531 z m -16.09571,0.326172 c 0.338,0.124591 0.61719,0.1988 0.86719,0.380859 v 1.537109 c -0.46447,0.365555 -1.32815,0.720704 -1.71484,0.720703 -0.0193,0 -0.0606,-0.03739 -0.082,-0.03906 l -0.44532,-0.662109 c -0.0425,0.157614 0.13928,-0.245125 0.36524,-0.416016 0.18961,-0.143401 0.11541,-0.114532 0.15234,-0.130859 0.10209,0.04409 0.25395,0.100305 0.32813,0.177734 l 0.0312,0.03125 c 0.22715,0.24051 0.1289,0.514925 0.1289,-0.34375 0,-0.945065 0.12937,-0.742342 -0.082,-0.515625 -0.0648,0.06948 -0.6982,0.267578 -0.41992,0.267578 0.0419,0 -0.0895,-0.04583 -0.10547,-0.06055 z m 15.65625,1.796875 0.84766,0.638671 c -0.49221,0.187245 -0.77694,0.203125 -0.61719,0.203125 -0.0525,0 -0.333,-0.02654 -0.71875,-0.148437 0.0442,-0.09916 0.0532,-0.271183 0.0957,-0.335938 0.13036,-0.194838 0.23941,-0.224959 0.39257,-0.357421 z m -63.92968,9.099609 -0.0293,0.0059 c 0.004,-6.56e-4 0.008,-0.0032 0.0117,-0.0039 0.008,-0.0014 0.01,-4.92e-4 0.0176,-0.002 z"
         id="path3" /><path
         style="color:#000000;-inkscape-font-specification:Arial;fill:#000000;stroke-linejoin:bevel;-inkscape-stroke:none;paint-order:markers stroke fill"
         d="M 94.361083,80.004074 V 63.842426 h 6.063377 q 1.85208,0 2.96554,0.496094 1.12448,0.48507 1.75286,1.510331 0.63942,1.014238 0.63942,2.127693 0,1.036286 -0.56224,1.951305 -0.56225,0.915018 -1.69775,1.477258 1.46623,0.429948 2.24896,1.466234 0.79375,1.036286 0.79375,2.447398 0,1.135505 -0.48507,2.116669 -0.47404,0.97014 -1.1796,1.499307 -0.70556,0.529168 -1.77492,0.804775 -1.05833,0.264584 -2.60173,0.264584 z m 2.138718,-9.370669 h 3.494708 q 1.422141,0 2.039501,-0.187414 0.8158,-0.242535 1.2237,-0.804775 0.41892,-0.56224 0.41892,-1.411112 0,-0.804775 -0.38585,-1.411113 -0.38585,-0.617362 -1.10243,-0.837848 -0.71658,-0.23151 -2.458425,-0.23151 h -3.230124 z m 0,7.463462 h 4.023879 q 1.03628,0 1.45521,-0.07717 0.73863,-0.132292 1.23472,-0.440973 0.49609,-0.30868 0.8158,-0.892969 0.3197,-0.595313 0.3197,-1.367016 0,-0.903994 -0.46302,-1.565453 -0.46302,-0.672483 -1.28984,-0.937066 -0.8158,-0.275608 -2.35921,-0.275608 H 96.499801 Z M 109.26596,66.124459 v -2.282033 h 1.98438 v 2.282033 z m 0,13.879615 V 68.29625 h 1.98438 v 11.707824 z m 4.26641,-5.853912 q 0,-3.252174 1.80799,-4.817627 1.51033,-1.300869 3.68212,-1.300869 2.41433,0 3.94671,1.587502 1.53238,1.576477 1.53238,4.365629 0,2.259985 -0.68351,3.560854 -0.67249,1.289846 -1.97335,2.006426 -1.28985,0.716581 -2.82223,0.716581 -2.45842,0 -3.97978,-1.576478 -1.51033,-1.576477 -1.51033,-4.542018 z m 2.0395,0 q 0,2.248961 0.98116,3.373441 0.98117,1.113456 2.46945,1.113456 1.47726,0 2.45842,-1.12448 0.98117,-1.124481 0.98117,-3.428563 0,-2.17179 -0.99219,-3.285246 -0.98117,-1.124481 -2.4474,-1.124481 -1.48828,0 -2.46945,1.113456 -0.98116,1.113456 -0.98116,3.362417 z m 11.72987,5.853912 v -10.16442 h -1.75287 V 68.29625 h 1.75287 v -1.245748 q 0,-1.179602 0.20946,-1.752866 0.28664,-0.771703 1.00322,-1.245748 0.7276,-0.48507 2.02847,-0.48507 0.83785,0 1.85209,0.198437 l -0.29766,1.730818 q -0.61736,-0.110243 -1.16858,-0.110243 -0.90399,0 -1.27882,0.385851 -0.37483,0.385851 -0.37483,1.444186 v 1.080383 h 2.28204 v 1.543404 h -2.28204 v 10.16442 z m 13.47172,0 v -1.719793 q -1.36702,1.984377 -3.7152,1.984377 -1.03628,0 -1.94028,-0.396876 -0.89297,-0.396875 -1.33394,-0.992188 -0.42995,-0.606338 -0.60634,-1.477259 -0.12126,-0.584288 -0.12126,-1.852085 v -7.254 h 1.98437 v 6.493322 q 0,1.554429 0.12127,2.09462 0.18741,0.782727 0.79375,1.234724 0.60634,0.440973 1.49931,0.440973 0.89297,0 1.6757,-0.451997 0.78272,-0.463022 1.10243,-1.245748 0.33073,-0.793751 0.33073,-2.293058 V 68.29625 h 1.98437 v 11.707824 z m 12.89845,-3.770316 2.05052,0.253559 q -0.48507,1.796964 -1.79696,2.789152 -1.3119,0.992189 -3.3514,0.992189 -2.56866,0 -4.07899,-1.576478 -1.49931,-1.587501 -1.49931,-4.442799 0,-2.954517 1.52135,-4.586116 1.52136,-1.631599 3.94671,-1.631599 2.34818,0 3.83646,1.598526 1.48829,1.598526 1.48829,4.497921 0,0.176389 -0.011,0.529167 h -8.73126 q 0.11025,1.929256 1.09141,2.954517 0.98116,1.025262 2.4474,1.025262 1.09141,0 1.86311,-0.573265 0.7717,-0.573264 1.2237,-1.830036 z m -6.51537,-3.208076 h 6.53742 q -0.1323,-1.477259 -0.74966,-2.215888 -0.94809,-1.146529 -2.45842,-1.146529 -1.36702,0 -2.30408,0.915018 -0.92605,0.915019 -1.02526,2.447399 z m 11.01328,6.978392 V 63.842426 h 1.98438 v 16.161648 z m 4.26642,-3.494708 1.96233,-0.308681 q 0.16536,1.179602 0.91502,1.807988 0.76067,0.628386 2.11666,0.628386 1.36702,0 2.02848,-0.551216 0.66146,-0.56224 0.66146,-1.311894 0,-0.672483 -0.58429,-1.058334 -0.4079,-0.264584 -2.02848,-0.672483 -2.18281,-0.551216 -3.03168,-0.948092 -0.83785,-0.407899 -1.27882,-1.113456 -0.42995,-0.71658 -0.42995,-1.576477 0,-0.782726 0.35278,-1.444185 0.3638,-0.672484 0.98116,-1.113456 0.46302,-0.341754 1.25677,-0.573265 0.80478,-0.242535 1.7198,-0.242535 1.37804,0 2.41432,0.396875 1.04731,0.396876 1.54341,1.080384 0.49609,0.672483 0.6835,1.807987 l -1.94028,0.264584 q -0.13229,-0.903994 -0.7717,-1.411112 -0.62838,-0.507119 -1.78594,-0.507119 -1.36701,0 -1.9513,0.451997 -0.58429,0.451997 -0.58429,1.058334 0,0.385851 0.24253,0.694532 0.24254,0.319706 0.76068,0.529168 0.29766,0.110243 1.75287,0.507118 2.10564,0.56224 2.93247,0.926043 0.83784,0.352778 1.31189,1.036285 0.47405,0.683508 0.47405,1.697745 0,0.992189 -0.58429,1.874134 -0.57327,0.870921 -1.66467,1.355991 -1.09141,0.474046 -2.46945,0.474046 -2.28203,0 -3.48369,-0.948092 -1.19062,-0.948091 -1.52135,-2.8112 z"
         id="path4" /></g><g
       id="text3"
       transform="scale(1.0404818,0.96109323)"><path
         style="color:#000000;-inkscape-font-specification:'Bauhaus 93, ';fill:#296635;fill-opacity:0;stroke-linejoin:bevel;-inkscape-stroke:none;paint-order:markers stroke fill"
         d="m 85.972656,23.162109 c -2.442912,0 -5.048923,1.082675 -6.785156,2.75586 -1.734608,1.671532 -2.921875,4.316454 -2.921875,6.792968 0,0.03566 0.02102,0.07358 0.02148,0.109375 -4.058936,0.08519 -8.107858,1.681234 -10.839843,4.664063 -2.817568,3.061934 -4.117188,7.243003 -4.117188,11.501953 v 12.369141 l 5.462891,5.46289 h 8.490234 l 3.212891,-3.21289 3.210937,3.21289 h 8.488281 l 1.113282,-1.111328 1.724609,1.72461 h 1.179688 c 3.505427,0 6.690353,-0.482766 9.541023,-2.166016 l 0.0371,-0.02148 c 1.39981,-0.841303 2.55125,-1.963603 3.58203,-3.197266 l 4.77148,4.771484 h 8.48828 l 1.46485,-1.464843 1.46484,1.464843 h 8.48828 l 4.05469,-4.054687 c 1.04671,0.944563 2.20423,1.768807 3.45508,2.427734 l 0.0176,0.0078 c 2.4542,1.281393 5.20693,1.960937 7.97461,1.960937 0.34192,0 0.69693,-0.01117 1.16602,-0.02734 l 2.03516,-2.107421 1.79296,1.792968 h 8.49024 l 5.46094,-5.46289 V 38.726562 l -1.38086,-1.380859 c 0.81766,-1.471212 1.40429,-3.06976 1.40429,-4.634766 0,-2.484203 -1.21191,-5.120307 -2.94921,-6.785156 -1.73012,-1.678533 -4.33069,-2.763672 -6.75782,-2.763672 -2.4438,0 -5.05087,1.083594 -6.78711,2.757813 -0.74347,0.716725 -1.31702,1.667817 -1.80859,2.652344 l -3.66211,-3.66211 h -8.48828 l -5.46289,5.462891 v 3.878906 c -1.41949,-0.726749 -2.95477,-1.157896 -4.50977,-1.3125 v -2.566406 l -5.46289,-5.462891 h -8.48828 l -5.46289,5.462891 v 3.21875 c -3.90258,0.02663 -7.804224,1.249132 -10.593753,3.957031 -0.270813,0.262216 -0.486418,0.584748 -0.740235,0.867188 L 94.27736,37.345703 c 0.817659,-1.471213 1.402343,-3.069758 1.402343,-4.634766 0,-2.484211 -1.211911,-5.12031 -2.949218,-6.785156 -1.730111,-1.678535 -4.330681,-2.763672 -6.757813,-2.763672 z m 0,8.126953 c -0.130558,0 0.464691,0.145161 0.685547,0.353516 l 0.03711,0.03711 c 0.236117,0.227036 0.496094,0.997654 0.496094,1.03125 0,0.13756 -0.118249,0.321165 -0.21875,0.552735 h -2 c -0.101148,-0.232635 -0.216797,-0.406958 -0.216797,-0.552735 0,-0.05568 0.271679,-0.808947 0.498047,-1.044921 0.262666,-0.223817 0.844828,-0.376954 0.71875,-0.376954 z m 70.841794,0 c -0.13056,0 0.46274,0.145159 0.6836,0.353516 l 0.0391,0.03711 c 0.23612,0.227038 0.49609,0.997659 0.49609,1.03125 0,0.137555 -0.11825,0.321168 -0.21875,0.552735 h -2 c -0.10121,-0.232739 -0.21875,-0.406874 -0.21875,-0.552735 0,-0.05568 0.27363,-0.808959 0.5,-1.044921 0.26267,-0.223823 0.84483,-0.376954 0.71875,-0.376954 z m -22.46289,5.886719 0.0195,0.02539 c -0.002,-0.0029 -0.006,-0.005 -0.008,-0.0078 -0.005,-0.0055 -0.007,-0.01205 -0.0117,-0.01758 z m -41.550779,2.378906 -0.03711,0.03516 c 0.0061,-0.0057 0.0076,-0.01573 0.01367,-0.02148 0.0066,-0.0063 0.0169,-0.0074 0.02344,-0.01367 z m 70.841799,0 -0.0391,0.03516 c 0.006,-0.0054 0.008,-0.01414 0.0137,-0.01953 0.007,-0.0069 0.0182,-0.0087 0.0254,-0.01563 z m -46.03516,1.525391 2.04492,1.041016 c -0.79415,0.319027 -1.39722,0.784437 -2.04492,1.341797 z m 23.92383,0.398438 1.37695,1.378906 v 1.33789 l -1.37695,1.378907 z m -13.67969,3.03125 0.0957,0.154296 c -0.0173,-0.02926 -0.0448,-0.04544 -0.0625,-0.07422 -0.0207,-0.03313 -0.0118,-0.04647 -0.0332,-0.08008 z"
         id="path1" /><path
         style="color:#000000;-inkscape-font-specification:'Bauhaus 93, ';fill:#000000;stroke-linejoin:bevel;-inkscape-stroke:none;paint-order:markers stroke fill"
         d="m 79.209449,38.49918 v 9.079258 q -0.885228,-0.499359 -1.611568,-0.499359 -2.315211,0 -2.315211,3.540911 v 10.736223 h -8.489107 v -12.37049 q 0,-4.902799 2.678382,-7.808162 2.678381,-2.92806 7.149915,-2.92806 0.998719,0 2.587589,0.249679 z m 10.985902,0.226982 V 61.356213 H 81.706245 V 38.726162 Z M 85.973496,28.625487 q 1.725059,0 2.973457,1.2257 1.271097,1.203002 1.271097,2.859966 0,1.770456 -1.203002,2.905363 -1.180304,1.134907 -3.041552,1.134907 -1.861248,0 -3.064249,-1.134907 -1.180304,-1.134907 -1.180304,-2.905363 0,-1.656964 1.248398,-2.859966 1.271096,-1.2257 2.996155,-1.2257 z m 23.401784,10.418449 v 8.943069 q -1.79315,0 -2.47409,0.680944 -0.65825,0.658247 -0.83983,2.632985 -0.59016,6.559764 -5.08439,9.260844 -2.383305,1.407285 -6.764047,1.407285 H 93.03262 v -8.988466 h 0.385868 q 2.042833,0 2.905363,-0.839831 0.885227,-0.86253 1.021416,-2.996156 0.181585,-3.472816 0.635548,-4.880101 0.476661,-1.407285 1.906645,-2.791872 2.4968,-2.428701 6.92293,-2.428701 z m 11.25828,-8.670692 v 9.465127 q 2.15633,-1.566172 4.31265,-1.566172 3.26854,0 5.17518,2.360607 1.92934,2.360607 1.92934,6.378179 v 14.345228 h -8.4891 V 49.39429 q 0,-1.452681 -0.31778,-1.95204 -0.29507,-0.49936 -1.1803,-0.49936 -1.42999,0 -1.42999,2.110928 v 12.302395 h -8.4891 V 30.373244 Z m 23.92385,0 v 8.670692 h 3.81329 v 8.965767 h -3.81329 q 0,2.701079 0.83984,3.722496 0.86252,1.021417 3.13234,1.021417 v 8.920371 q -0.65825,0.0227 -0.97602,0.0227 -2.88267,0 -5.44756,-1.339191 -2.54219,-1.33919 -4.08566,-3.631703 -1.95204,-2.928061 -1.95204,-7.762766 V 30.373244 Z m 16.47885,8.352918 v 22.630051 h -8.4891 V 38.726162 Z m -4.22185,-10.100675 q 1.72506,0 2.97346,1.2257 1.27109,1.203002 1.27109,2.859966 0,1.770456 -1.203,2.905363 -1.1803,1.134907 -3.04155,1.134907 -1.86125,0 -3.06425,-1.134907 -1.1803,-1.134907 -1.1803,-2.905363 0,-1.656964 1.24839,-2.859966 1.2711,-1.2257 2.99616,-1.2257 z"
         id="path2" /></g></g></svg>
